<?xml version="1.0" encoding="UTF-8"?>
<svg version="1.1" xmlns="http://www.w3.org/2000/svg" width="349" height="349">
<path d="M0 0 C1.14038979 -0.01052147 1.14038979 -0.01052147 2.30381775 -0.02125549 C4.74948081 -0.03869724 7.19490199 -0.04510935 9.640625 -0.046875 C10.89149399 -0.04788712 10.89149399 -0.04788712 12.16763306 -0.04891968 C24.31272291 -0.03327388 36.04060841 0.29870917 47.890625 3.203125 C48.62120117 3.37473145 49.35177734 3.54633789 50.10449219 3.72314453 C83.80069195 11.80416629 112.50178941 28.69801367 136.890625 53.203125 C137.39529297 53.70521484 137.89996094 54.20730469 138.41992188 54.72460938 C166.05128649 82.50433032 184.70677668 124.97313471 185.12890625 164.20703125 C185.13860947 164.9592244 185.14831268 165.71141754 185.15830994 166.48640442 C185.18317023 168.91286604 185.19583062 171.33904882 185.203125 173.765625 C185.20574341 174.59370667 185.20836182 175.42178833 185.21105957 176.27496338 C185.21559025 189.64920189 184.14645956 202.19141472 180.890625 215.203125 C180.59651315 216.52028973 180.30470916 217.8379727 180.015625 219.15625 C170.26363745 260.07976917 142.49104203 298.8141395 106.890625 321.203125 C106.24077637 321.61304688 105.59092773 322.02296875 104.92138672 322.4453125 C79.98644457 338.00386775 50.4941822 349.22282647 20.78125 349.40625 C19.64106415 349.41683945 19.64106415 349.41683945 18.47784424 349.42764282 C-13.20783353 349.65505972 -13.20783353 349.65505972 -27.109375 346.203125 C-27.92116211 346.00976562 -28.73294922 345.81640625 -29.56933594 345.6171875 C-62.40450957 337.60921139 -91.31477714 321.10927093 -115.109375 297.203125 C-115.61162598 296.70345215 -116.11387695 296.2037793 -116.63134766 295.68896484 C-148.07546628 264.07366354 -164.59131217 219.42331886 -164.484375 175.265625 C-164.48416351 174.4559729 -164.48395203 173.6463208 -164.48373413 172.81213379 C-164.44857968 159.27750211 -163.39520963 146.37886288 -160.109375 133.203125 C-159.92745605 132.44773438 -159.74553711 131.69234375 -159.55810547 130.9140625 C-151.93443363 100.06510264 -135.40574723 72.62117887 -113.109375 50.203125 C-112.6138916 49.70361328 -112.1184082 49.20410156 -111.60791016 48.68945312 C-85.23648348 22.46297125 -51.66569258 6.95137288 -15.109375 1.203125 C-14.03469971 1.0280542 -12.96002441 0.8529834 -11.8527832 0.67260742 C-7.88808909 0.17537226 -3.98861073 0.02459375 0 0 Z " fill="#0369B9" transform="translate(164.109375,-0.203125)"/>
<path d="M0 0 C86.64324367 0 86.64324367 0 102.875 9.0625 C103.75502686 9.54001709 104.63505371 10.01753418 105.54174805 10.50952148 C113.09955417 14.760918 119.14917382 19.5959707 125 26 C125.7425 26.78761719 126.485 27.57523438 127.25 28.38671875 C141.10756238 44.26517564 144.91800096 64.83085382 144.18798828 85.28955078 C143.46470678 95.71795499 141.14860796 106.83547783 136 116 C135.53078125 116.91523438 135.0615625 117.83046875 134.578125 118.7734375 C123.87854587 138.59313408 106.10995581 151.08749416 85.0546875 158.203125 C57.61510466 165.36127705 28.35788863 160 0 160 C0 107.2 0 54.4 0 0 Z " fill="#F9FCFC" transform="translate(143,84)"/>
<path d="M0 0 C5.94 0 11.88 0 18 0 C20.2355617 43.24155922 20.2355617 43.24155922 7.63378906 61.53857422 C4.90398042 65.65123571 2.73602198 70.0433871 0.5 74.4375 C-0.27923404 75.91642853 -1.06037274 77.39435567 -1.84375 78.87109375 C-3.96658531 82.88225276 -5.96820197 86.93640394 -8 91 C4.87 91.495 4.87 91.495 18 92 C18 102.89 18 113.78 18 125 C3.15 125.33 -11.7 125.66 -27 126 C-36.10685676 142.70732563 -36.10685676 142.70732563 -44 160 C-57.53 160 -71.06 160 -85 160 C-84.11519542 156.46078168 -83.14275183 154.17242284 -81.41015625 151.02734375 C-80.61254883 149.56941406 -80.61254883 149.56941406 -79.79882812 148.08203125 C-79.22583984 147.04433594 -78.65285156 146.00664062 -78.0625 144.9375 C-76.86495822 142.74920507 -75.66835288 140.56039743 -74.47265625 138.37109375 C-73.87984863 137.28683105 -73.28704102 136.20256836 -72.67626953 135.08544922 C-70.40886676 130.91192225 -68.19803893 126.71035386 -66 122.5 C-61.82326455 114.51798294 -57.54244663 106.59528306 -53.24047852 98.68017578 C-48.76390186 90.43402137 -44.34438919 82.15850238 -39.9375 73.875 C-34.71058078 64.05085847 -29.4350156 54.25548212 -24.08789062 44.49609375 C-20.79615089 38.48155694 -17.5720215 32.43483424 -14.38134766 26.36621094 C-9.71040026 17.5108287 -4.84657426 8.76006975 0 0 Z " fill="#FAFCFB" transform="translate(116,84)"/>
<path d="M0 0 C45.29951299 0 45.29951299 0 59.4140625 13.25390625 C69.37698358 24.22293512 72.86296261 35.05761876 72.3125 49.625 C71.65975464 60.44192306 68.39220763 68.28837362 62 77 C61.53722656 77.65871094 61.07445312 78.31742187 60.59765625 78.99609375 C53.35569691 88.42113648 43.14385722 91.57112086 32 95 C21.44 95 10.88 95 0 95 C0 63.65 0 32.3 0 0 Z " fill="#0369B8" transform="translate(179,117)"/>
<path d="M0 0 C0.33 0 0.66 0 1 0 C1 52.8 1 105.6 1 160 C68.71960992 163.68750431 68.71960992 163.68750431 123.1796875 134.8828125 C128.15032647 129.60271741 131.73976101 123.78125227 135.3359375 117.52734375 C135.88507813 116.69332031 136.43421875 115.85929687 137 115 C137.66 115 138.32 115 139 115 C137.98477571 126.1324595 137.98477571 126.1324595 134.375 129.3125 C133.26125 129.869375 132.1475 130.42625 131 131 C129.53282855 132.17212783 128.09620427 133.38321581 126.6875 134.625 C125.67236328 135.51058594 125.67236328 135.51058594 124.63671875 136.4140625 C122.90222759 137.91959849 122.90222759 137.91959849 122 140 C121.34 140 120.68 140 120 140 C119.731875 140.598125 119.46375 141.19625 119.1875 141.8125 C118.00800664 143.98525092 116.770808 145.30618365 115 147 C114.67 147.66 114.34 148.32 114 149 C113.34 149 112.68 149 112 149 C112.83333333 151.16666667 112.83333333 151.16666667 115 152 C115 152.99 115 153.98 115 155 C114.43796875 154.84144531 113.8759375 154.68289062 113.296875 154.51953125 C105.52004637 152.76048668 99.76849146 153.9890421 93 158 C93 158.66 93 159.32 93 160 C80.90210348 161.57410986 69.06495339 162.29001312 56.87109375 162.23046875 C55.21769751 162.22927214 53.56430058 162.2288248 51.91090393 162.2290802 C48.49174582 162.22753588 45.0726955 162.21939482 41.65356445 162.20581055 C37.26430441 162.18859251 32.87515931 162.18500379 28.48586941 162.18575573 C25.09311317 162.18548494 21.70038222 162.18002215 18.30763435 162.17275429 C16.68684136 162.16957094 15.06604551 162.16760099 13.44524956 162.16686058 C11.20099768 162.16470643 8.95687156 162.15598936 6.71264648 162.14526367 C5.43679184 162.14145187 4.16093719 162.13764008 2.84642029 162.13371277 C0 162 0 162 -1 161 C-1.14672747 158.74501055 -1.22754984 156.48568238 -1.28125 154.2265625 C-1.29965942 153.54701508 -1.31806885 152.86746765 -1.33703613 152.16732788 C-1.39594738 149.98664228 -1.44866833 147.8058764 -1.5 145.625 C-1.56769437 142.76285655 -1.64143684 139.90096036 -1.71875 137.0390625 C-1.74904297 135.76240723 -1.77933594 134.48575195 -1.81054688 133.17041016 C-1.86404509 129.97607229 -1.86404509 129.97607229 -3 127 C-3.33 127.33 -3.66 127.66 -4 128 C-5.45823434 128.07743778 -6.92021873 128.08589511 -8.38037109 128.06591797 C-9.31158783 128.05615936 -10.24280457 128.04640076 -11.20223999 128.03634644 C-12.21573517 128.02177399 -13.22923035 128.00720154 -14.2734375 127.9921875 C-16.39843271 127.97466897 -18.52343302 127.95776091 -20.6484375 127.94140625 C-24.01511564 127.91042455 -27.3815425 127.87491003 -30.74804688 127.82861328 C-33.98570947 127.78636226 -37.223075 127.76285451 -40.4609375 127.7421875 C-41.47038422 127.72356659 -42.47983093 127.70494568 -43.51986694 127.6857605 C-44.457388 127.68230621 -45.39490906 127.67885193 -46.36083984 127.67529297 C-47.18611176 127.66561493 -48.01138367 127.65593689 -48.86166382 127.64596558 C-51.51478006 128.08522975 -52.36520337 128.90734747 -54 131 C-54.77813652 133.03341887 -54.77813652 133.03341887 -55.1875 135.1875 C-55.5896875 137.0746875 -55.5896875 137.0746875 -56 139 C-56.99 139 -57.98 139 -59 139 C-59.66 140.98 -60.32 142.96 -61 145 C-61.66 145 -62.32 145 -63 145 C-61.6128558 140.40639183 -59.73993255 136.39340498 -57.4375 132.1875 C-56.81746094 131.04667969 -56.19742188 129.90585938 -55.55859375 128.73046875 C-54 126 -54 126 -53 125 C-51.58774954 124.9071274 -50.17091066 124.88253228 -48.75561523 124.88647461 C-47.85475693 124.88655014 -46.95389862 124.88662567 -46.02574158 124.88670349 C-45.04658279 124.89186478 -44.06742401 124.89702606 -43.05859375 124.90234375 C-42.06118668 124.9037587 -41.0637796 124.90517365 -40.03614807 124.90663147 C-36.83656876 124.91224886 -33.63705831 124.92480429 -30.4375 124.9375 C-28.27408955 124.94251276 -26.11067801 124.94707605 -23.94726562 124.95117188 C-18.63146226 124.96137495 -13.31580861 124.98094692 -8 125 C-8 114.11 -8 103.22 -8 92 C-16.91 92 -25.82 92 -35 92 C-30.16092756 81.51534304 -25.11538005 71.21462879 -19.6875 61.0234375 C-19.28402344 60.24460205 -18.88054687 59.4657666 -18.46484375 58.66333008 C-17.3675248 56.66822133 -16.17638369 54.72423474 -14.94140625 52.8112793 C-8.23549394 42.08853225 -7.8593134 32.48423314 -8 20.0625 C-7.99188676 18.20375681 -7.98019005 16.34502567 -7.96484375 14.48632812 C-7.93536353 9.9899545 -7.95396701 5.49620841 -8 1 C-7.67 1 -7.34 1 -7 1 C-7 14.53 -7 28.06 -7 42 C-6.34 42 -5.68 42 -5 42 C-5.01571045 41.35039307 -5.0314209 40.70078613 -5.04760742 40.03149414 C-5.11059337 37.04192069 -5.14919021 34.05248751 -5.1875 31.0625 C-5.21263672 30.04091797 -5.23777344 29.01933594 -5.26367188 27.96679688 C-5.31984895 22.10565548 -4.79542748 17.37855166 -2.70141602 11.89624023 C-1.85192064 9.59967547 -1.54037962 7.43717329 -1.375 5 C-1.08988764 1.08988764 -1.08988764 1.08988764 0 0 Z " fill="#1A66A4" transform="translate(142,84)"/>
<path d="M0 0 C0.33 0.66 0.66 1.32 1 2 C1.66 2.33 2.32 2.66 3 3 C2.34 3 1.68 3 1 3 C1.33 5.31 1.66 7.62 2 10 C3.32 9.67 4.64 9.34 6 9 C7.21983748 11.43967497 7.12051527 12.99904524 7.11352539 15.72509766 C7.11344986 16.70596344 7.11337433 17.68682922 7.11329651 18.69741821 C7.10813522 19.75891083 7.10297394 20.82040344 7.09765625 21.9140625 C7.0962413 22.99883881 7.09482635 24.08361511 7.09336853 25.20126343 C7.08775802 28.67587 7.07520372 32.15041281 7.0625 35.625 C7.05748635 37.97656157 7.05292321 40.32812415 7.04882812 42.6796875 C7.03778518 48.45314686 7.02103679 54.22656888 7 60 C6.34 60 5.68 60 5 60 C3.85185003 62.29629994 3.69230191 64.07698086 3.4375 66.625 C3.35371094 67.44226563 3.26992187 68.25953125 3.18359375 69.1015625 C3.09271484 70.04128906 3.09271484 70.04128906 3 71 C2.67 71 2.34 71 2 71 C1.505 59.12 1.505 59.12 1 47 C-7.25 46.67 -15.5 46.34 -24 46 C-22 41 -22 41 -20.5 39.125 C-18.48860502 36.27552378 -17.83941732 33.35766927 -17 30 C-16.01 30 -15.02 30 -14 30 C-13.87625 29.195625 -13.7525 28.39125 -13.625 27.5625 C-13.41875 26.716875 -13.2125 25.87125 -13 25 C-12.34 24.67 -11.68 24.34 -11 24 C-10.27306096 22.02111039 -9.60183749 20.02045442 -9 18 C-8.01 18 -7.02 18 -6 18 C-6.268125 17.319375 -6.53625 16.63875 -6.8125 15.9375 C-7.0623635 12.02297176 -5.58843529 10.64793591 -3.12890625 7.74609375 C-1.63804023 5.78669354 -1.63804023 5.78669354 -2 2 C-1.34 2 -0.68 2 0 2 C0 1.34 0 0.68 0 0 Z " fill="#0567B9" transform="translate(134,129)"/>
<path d="M0 0 C36.96551724 0 36.96551724 0 50 7 C48 8 48 8 44.8515625 7.0390625 C43.45679688 6.57242188 42.06203125 6.10578125 40.625 5.625 C27.28957686 1.94510296 27.28957686 1.94510296 2 2 C2 32.03 2 62.06 2 93 C27.26623666 93.27970664 27.26623666 93.27970664 40 89 C43.625 88.8125 43.625 88.8125 46 89 C46.495 87.515 46.495 87.515 47 86 C51.33333333 83 51.33333333 83 54 83 C54.33 82.34 54.66 81.68 55 81 C54.62820216 83.53697346 54.25461999 84.75279613 52.390625 86.5625 C35.60382921 97.83538476 20.52414235 95 0 95 C0 63.65 0 32.3 0 0 Z " fill="#2B72A4" transform="translate(179,117)"/>
<path d="M0 0 C0.66 0 1.32 0 2 0 C0.98477571 11.1324595 0.98477571 11.1324595 -2.625 14.3125 C-3.73875 14.869375 -4.8525 15.42625 -6 16 C-7.46717145 17.17212783 -8.90379573 18.38321581 -10.3125 19.625 C-10.98925781 20.21539062 -11.66601562 20.80578125 -12.36328125 21.4140625 C-14.09777241 22.91959849 -14.09777241 22.91959849 -15 25 C-15.66 25 -16.32 25 -17 25 C-17.268125 25.598125 -17.53625 26.19625 -17.8125 26.8125 C-18.99199336 28.98525092 -20.229192 30.30618365 -22 32 C-22.495 32.99 -22.495 32.99 -23 34 C-23.66 34 -24.32 34 -25 34 C-24.16666667 36.16666667 -24.16666667 36.16666667 -22 37 C-22 37.99 -22 38.98 -22 40 C-22.56203125 39.84144531 -23.1240625 39.68289062 -23.703125 39.51953125 C-31.47995363 37.76048668 -37.23150854 38.9890421 -44 43 C-44 43.66 -44 44.32 -44 45 C-54.53708724 46.03524294 -64.97429033 46.1311986 -75.55078125 46.09765625 C-77.30340026 46.09578656 -79.0560198 46.09436527 -80.80863953 46.09336853 C-85.37712091 46.08958668 -89.94556949 46.07979444 -94.51403809 46.06866455 C-99.193599 46.05835625 -103.87316533 46.05385091 -108.55273438 46.04882812 C-117.70183717 46.03816741 -126.85091584 46.02114436 -136 46 C-136 45.67 -136 45.34 -136 45 C-134.64269272 44.98786972 -134.64269272 44.98786972 -133.25796509 44.97549438 C-124.69616599 44.89728819 -116.13451859 44.80992059 -107.57291603 44.71247292 C-103.17217739 44.66270144 -98.77146056 44.61637101 -94.37060547 44.578125 C-90.11703171 44.54102866 -85.86364936 44.4946055 -81.61024094 44.44193649 C-79.99412802 44.42352103 -78.37797427 44.40836662 -76.76179886 44.39665604 C-68.33774244 44.3334775 -60.19968429 44.18278495 -52 42 C-50.96230469 41.72800781 -49.92460937 41.45601562 -48.85546875 41.17578125 C-27.86360856 34.38339311 -12.54733696 21.45383499 -1.6640625 2.52734375 C-0.84035156 1.27630859 -0.84035156 1.27630859 0 0 Z " fill="#2A75AC" transform="translate(279,199)"/>
<path d="M0 0 C4.66666667 0 9.33333333 0 14 0 C14.804375 -0.103125 15.60875 -0.20625 16.4375 -0.3125 C19 0 19 0 21.3125 2.5 C21.869375 3.325 22.42625 4.15 23 5 C23.598125 4.175 24.19625 3.35 24.8125 2.5 C25.8953125 1.2625 25.8953125 1.2625 27 0 C27.99 0 28.98 0 30 0 C30 4.62 30 9.24 30 14 C28.68 13.67 27.36 13.34 26 13 C25.67 11.68 25.34 10.36 25 9 C23.68 9.33 22.36 9.66 21 10 C20.01 8.68 19.02 7.36 18 6 C18 8.64 18 11.28 18 14 C15.03 13.67 12.06 13.34 9 13 C8.67 13.66 8.34 14.32 8 15 C6.68 14.67 5.36 14.34 4 14 C4 10.37 4 6.74 4 3 C2.68 3 1.36 3 0 3 C0 2.01 0 1.02 0 0 Z " fill="#1E73B1" transform="translate(270,86)"/>
<path d="M0 0 C4.45768233 -0.43702768 6.34650802 -0.51445113 9.9375 2.3125 C12 5 12 5 12 8 C12.57878906 8.23589844 13.15757812 8.47179687 13.75390625 8.71484375 C21.94536211 13.4017811 27.15693493 24.47812627 30.6875 32.9375 C31.79302707 36.04062086 31.79302707 36.04062086 34 38 C38.23455271 54.87993716 38.147715 72.10060427 35.3125 89.1875 C35.16417725 90.13850586 35.01585449 91.08951172 34.86303711 92.06933594 C34.40541846 94.50609375 33.95408622 96.71149438 33 99 C30.35546875 100.61328125 30.35546875 100.61328125 28 101 C28.18175781 100.46375 28.36351562 99.9275 28.55078125 99.375 C36.4353728 74.79124787 36.68884991 50.21397976 24.98242188 26.83056641 C19.5003966 16.61579863 11.57317558 7.64247461 1.46875 1.91015625 C0.9840625 1.60980469 0.499375 1.30945313 0 1 C0 0.67 0 0.34 0 0 Z " fill="#1D659C" transform="translate(252,97)"/>
<path d="M0 0 C2.475 0.495 2.475 0.495 5 1 C5 1.66 5 2.32 5 3 C6.32 3.66 7.64 4.32 9 5 C9 6.32 9 7.64 9 9 C8.34 9 7.68 9 7 9 C6.96261719 9.83144531 6.92523438 10.66289063 6.88671875 11.51953125 C6.82097656 12.60621094 6.75523437 13.69289063 6.6875 14.8125 C6.60048828 16.43091797 6.60048828 16.43091797 6.51171875 18.08203125 C5.96931493 21.17497517 5.44710376 22.13022903 3 24 C1.9275 23.46375 0.855 22.9275 -0.25 22.375 C-3.71486302 20.62201554 -3.71486302 20.62201554 -5.9375 21.8125 C-6.618125 22.204375 -7.29875 22.59625 -8 23 C-10.69117158 23.19259835 -13.29722625 23.09009246 -16 23 C-16 22.34 -16 21.68 -16 21 C-13.36 21 -10.72 21 -8 21 C-8.33 18.03 -8.66 15.06 -9 12 C-8.443125 12.680625 -7.88625 13.36125 -7.3125 14.0625 C-6.549375 14.701875 -5.78625 15.34125 -5 16 C-2.29294488 15.85974801 -2.29294488 15.85974801 0 15 C0.33 16.65 0.66 18.3 1 20 C1.99 20.33 2.98 20.66 4 21 C4 16.38 4 11.76 4 7 C-0.46948238 9.64233213 -0.46948238 9.64233213 -4 13 C-4.391875 12.195625 -4.78375 11.39125 -5.1875 10.5625 C-6.76948191 7.76935262 -6.76948191 7.76935262 -9.6875 7.1875 C-10.450625 7.125625 -11.21375 7.06375 -12 7 C-12.33 7.99 -12.66 8.98 -13 10 C-13.66 10 -14.32 10 -15 10 C-15 9.01 -15 8.02 -15 7 C-18.63 7 -22.26 7 -26 7 C-26.33 7.99 -26.66 8.98 -27 10 C-27.33 8.02 -27.66 6.04 -28 4 C-27.34 4 -26.68 4 -26 4 C-26 4.66 -26 5.32 -26 6 C-24.77023437 5.89300781 -23.54046875 5.78601563 -22.2734375 5.67578125 C-20.64069147 5.55379448 -19.00787482 5.43275047 -17.375 5.3125 C-16.56675781 5.23966797 -15.75851562 5.16683594 -14.92578125 5.09179688 C-9.74684945 4.73390321 -6.54135817 5.14144284 -2 8 C-1.34 5.36 -0.68 2.72 0 0 Z " fill="#0C65AE" transform="translate(296,79)"/>
<path d="M0 0 C0.66 0 1.32 0 2 0 C2.33 1.98 2.66 3.96 3 6 C4.65 6 6.3 6 8 6 C8 9.63 8 13.26 8 17 C9.32 17 10.64 17 12 17 C12 17.66 12 18.32 12 19 C11.01 19 10.02 19 9 19 C9 21.97 9 24.94 9 28 C3.64951939 27.62671065 1.49087093 26.0042343 -2 22 C-1.67 21.01 -1.34 20.02 -1 19 C0.32 19.33 1.64 19.66 3 20 C1.02 17.69 -0.96 15.38 -3 13 C-2.34 12.67 -1.68 12.34 -1 12 C0.04449911 8.86650268 -0.06576355 8.01031744 -1 5 C-0.34 5 0.32 5 1 5 C0.67 3.35 0.34 1.7 0 0 Z " fill="#0667B6" transform="translate(266,83)"/>
<path d="M0 0 C9.13477857 3.56479164 14.83682177 12.45452889 19 21 C22.9501809 32.23248718 22.45779309 46.98846901 18 58 C14.80636186 64.05608419 11.15525306 69.4696261 6 74 C5.67 72.68 5.34 71.36 5 70 C6.98 69.01 6.98 69.01 9 68 C9 67.34 9 66.68 9 66 C9.66 66 10.32 66 11 66 C11.33 64.68 11.66 63.36 12 62 C12.66 62 13.32 62 14 62 C14.33 58.04 14.66 54.08 15 50 C16.32 50 17.64 50 19 50 C19.52807435 38.83709509 18.34097052 29.68037161 15 19 C14.85433594 18.22140625 14.70867187 17.4428125 14.55859375 16.640625 C14.37425781 16.09921875 14.18992188 15.5578125 14 15 C13.01 14.67 12.02 14.34 11 14 C10.67 13.01 10.34 12.02 10 11 C9.01 10.525625 8.02 10.05125 7 9.5625 C4 8 4 8 3.125 5.8125 C3.063125 4.9153125 3.063125 4.9153125 3 4 C2.34 4 1.68 4 1 4 C0.67 2.68 0.34 1.36 0 0 Z " fill="#276DA4" transform="translate(230,125)"/>
<path d="M0 0 C9.79771677 -0.06991499 19.59537291 -0.12301998 29.39328957 -0.15543652 C33.94424967 -0.17100512 38.49503746 -0.19207971 43.04589844 -0.22631836 C47.44851722 -0.25922945 51.85097164 -0.27691897 56.25370407 -0.28463173 C57.92239337 -0.29011888 59.59107501 -0.30083147 61.25969315 -0.31719017 C87.39162537 -0.56288503 87.39162537 -0.56288503 95 6 C89.58461538 7.23076923 89.58461538 7.23076923 86.625 6.0625 C86.08875 5.711875 85.5525 5.36125 85 5 C85 4.34 85 3.68 85 3 C69.05927141 1.94790952 53.13491707 1.84333572 37.16674805 1.86962891 C33.59831973 1.8754203 30.02996511 1.87197091 26.46153927 1.86605644 C23.68806902 1.86245195 20.91461647 1.86358727 18.14114571 1.86618423 C16.18735327 1.86716984 14.23356013 1.86414821 12.2797699 1.86105347 C10.5150106 1.86578171 10.5150106 1.86578171 8.71459961 1.87060547 C7.1629435 1.87179886 7.1629435 1.87179886 5.5799408 1.87301636 C2.88200924 1.88977022 2.88200924 1.88977022 0 3 C0 2.01 0 1.02 0 0 Z " fill="#EBFEFE" transform="translate(144,85)"/>
<path d="M0 0 C6.27 0 12.54 0 19 0 C19.495 0.99 19.495 0.99 20 2 C14.06 2 8.12 2 2 2 C1.34 3.65 0.68 5.3 0 7 C-0.65563409 8.33626018 -1.33277455 9.66218837 -2.03125 10.9765625 C-2.42521973 11.72123779 -2.81918945 12.46591309 -3.22509766 13.2331543 C-3.64581543 14.02246338 -4.0665332 14.81177246 -4.5 15.625 C-5.39330461 17.31115795 -6.28653133 18.99735717 -7.1796875 20.68359375 C-7.64084961 21.55226074 -8.10201172 22.42092773 -8.57714844 23.31591797 C-10.93699292 27.76755323 -13.2802531 32.22789998 -15.625 36.6875 C-16.47127711 38.29561347 -17.31762407 39.90369019 -18.1640625 41.51171875 C-18.76992187 42.66285156 -19.37578125 43.81398437 -20 45 C-21.46328423 40.54186071 -19.91780842 38.20442614 -18 34 C-17.30859478 31.22111387 -17.30859478 31.22111387 -17 29 C-16.67 29.66 -16.34 30.32 -16 31 C-15.34 31 -14.68 31 -14 31 C-13.34 28.36 -12.68 25.72 -12 23 C-11.34 23 -10.68 23 -10 23 C-10.33 21.68 -10.66 20.36 -11 19 C-9.68 18.67 -8.36 18.34 -7 18 C-7 15.36 -7 12.72 -7 10 C-6.401875 9.835 -5.80375 9.67 -5.1875 9.5 C-1.9808048 7.60860514 -1.9808048 7.60860514 0 0 Z " fill="#21689F" transform="translate(114,82)"/>
<path d="M0 0 C9.89352365 -0.09332315 19.7869399 -0.16407742 29.68081665 -0.20724869 C34.27662884 -0.2279851 38.87213646 -0.25604238 43.46777344 -0.30175781 C47.91580124 -0.34572009 52.36353902 -0.36924147 56.81176758 -0.37950897 C58.49557043 -0.38681116 60.17936025 -0.40106576 61.86303711 -0.42292023 C78.49553629 -0.62991853 93.02180088 2.51090044 108 10 C108 10.99 108 11.98 108 13 C102.71713518 11.35940751 98.00452713 9.06293822 93.09765625 6.53515625 C81.48796613 1.64892697 68.71750737 1.53715878 56.34765625 1.48828125 C54.70998332 1.47138463 53.07232297 1.45322795 51.43467712 1.43388367 C47.17863907 1.38691732 42.92265195 1.35676622 38.66644287 1.33044434 C34.30161473 1.30036536 29.9369615 1.25393105 25.57226562 1.20898438 C17.04826415 1.12356066 8.52424573 1.05594881 0 1 C0 0.67 0 0.34 0 0 Z " fill="#2B6E9F" transform="translate(143,83)"/>
<path d="M0 0 C5.94 0 11.88 0 18 0 C18 13.53 18 27.06 18 41 C17.67 41 17.34 41 17 41 C16.08954273 36.36895437 15.86720952 31.89822573 15.90234375 27.1953125 C15.9037587 26.4713327 15.90517365 25.74735291 15.90663147 25.00143433 C15.91218925 22.70924593 15.92473367 20.41715843 15.9375 18.125 C15.94252047 16.56250142 15.94708241 15.00000129 15.95117188 13.4375 C15.96214481 9.62496165 15.9793799 5.81249788 16 2 C14.24929483 2.11470137 12.49942464 2.24219028 10.75 2.375 C9.28820312 2.47941406 9.28820312 2.47941406 7.796875 2.5859375 C5.0456035 2.99324864 3.30944093 3.47411939 1 5 C-0.76727858 8.0334467 -0.76727858 8.0334467 -2 11 C-2.99 11 -3.98 11 -5 11 C-3.72322719 6.7768284 -2.32785375 3.87975626 0 0 Z " fill="#C9EAF8" transform="translate(116,84)"/>
<path d="M0 0 C5 1 5 1 6.8125 3.0625 C7.204375 3.701875 7.59625 4.34125 8 5 C8.598125 4.175 9.19625 3.35 9.8125 2.5 C10.534375 1.675 11.25625 0.85 12 0 C12.99 0 13.98 0 15 0 C15 4.62 15 9.24 15 14 C13.68 13.67 12.36 13.34 11 13 C10.67 11.68 10.34 10.36 10 9 C8.68 9.33 7.36 9.66 6 10 C5.01 8.68 4.02 7.36 3 6 C3 8.64 3 11.28 3 14 C2.01 14 1.02 14 0 14 C0 9.38 0 4.76 0 0 Z " fill="#C4EFF8" transform="translate(285,86)"/>
<path d="M0 0 C0.66 0.33 1.32 0.66 2 1 C2 1.99 2 2.98 2 4 C1.34 4 0.68 4 0 4 C0 5.32 0 6.64 0 8 C-0.66 8 -1.32 8 -2 8 C-2.33 10.31 -2.66 12.62 -3 15 C-9.08692443 15.19204288 -15.17403675 15.3708004 -21.26171875 15.53710938 C-23.33376598 15.59560506 -25.40571301 15.65776739 -27.47753906 15.72363281 C-30.45098631 15.81753115 -33.42454148 15.8983526 -36.3984375 15.9765625 C-37.32868744 16.00875885 -38.25893738 16.0409552 -39.21737671 16.0741272 C-40.07811798 16.09429901 -40.93885925 16.11447083 -41.82568359 16.13525391 C-42.58513275 16.15746002 -43.34458191 16.17966614 -44.12704468 16.20254517 C-46 16 -46 16 -48 14 C-48.39764263 12.01178687 -48.73775349 10.01055661 -49 8 C-47.68 8.33 -46.36 8.66 -45 9 C-45.33 10.32 -45.66 11.64 -46 13 C-32.47 13 -18.94 13 -5 13 C-4.67 11.35 -4.34 9.7 -4 8 C-3.02734375 5.76171875 -3.02734375 5.76171875 -1.9375 3.6875 C-1.57527344 2.99011719 -1.21304688 2.29273438 -0.83984375 1.57421875 C-0.56269531 1.05472656 -0.28554687 0.53523437 0 0 Z " fill="#1D689C" transform="translate(77,231)"/>
<path d="M0 0 C0.79719955 0.00222061 1.59439911 0.00444122 2.41575623 0.00672913 C3.31661453 0.00680466 4.21747284 0.00688019 5.14562988 0.00695801 C6.12478867 0.01211929 7.10394745 0.01728058 8.11277771 0.02259827 C9.11018478 0.02401321 10.10759186 0.02542816 11.13522339 0.02688599 C14.3348027 0.03250337 17.53431315 0.04505881 20.73387146 0.05775452 C22.89728191 0.06276728 25.06069345 0.06733057 27.22410583 0.07142639 C32.53988471 0.08247845 37.85562317 0.09923348 43.17137146 0.12025452 C42.84137146 0.78025452 42.51137146 1.44025452 42.17137146 2.12025452 C40.2864801 2.1421283 40.2864801 2.1421283 38.36351013 2.16444397 C33.70599254 2.22237056 29.0489613 2.29960362 24.39183044 2.38270569 C22.37530911 2.41598162 20.35869404 2.4440052 18.34202576 2.46669006 C15.44489046 2.50018708 12.54861628 2.55249996 9.65184021 2.60853577 C8.74862534 2.61492569 7.84541046 2.62131561 6.91482544 2.62789917 C6.07418045 2.64769333 5.23353546 2.66748749 4.36741638 2.68788147 C3.2582209 2.70453606 3.2582209 2.70453606 2.12661743 2.7215271 C-0.36655804 3.22995286 -1.25571797 4.15851568 -2.82862854 6.12025452 C-3.60676506 8.15367338 -3.60676506 8.15367338 -4.01612854 10.30775452 C-4.28425354 11.56587952 -4.55237854 12.82400452 -4.82862854 14.12025452 C-5.81862854 14.12025452 -6.80862854 14.12025452 -7.82862854 14.12025452 C-8.48862854 16.10025452 -9.14862854 18.08025452 -9.82862854 20.12025452 C-10.48862854 20.12025452 -11.14862854 20.12025452 -11.82862854 20.12025452 C-10.44148434 15.52664635 -8.56856109 11.51365949 -6.26612854 7.30775452 C-5.33606995 5.59652405 -5.33606995 5.59652405 -4.38722229 3.85072327 C-2.27455219 0.14957941 -2.27455219 0.14957941 0 0 Z " fill="#20669A" transform="translate(90.82862854003906,208.87974548339844)"/>
<path d="M0 0 C8.91 0 17.82 0 27 0 C27 10.89 27 21.78 27 33 C12.15 33.33 -2.7 33.66 -18 34 C-19.98 37.63 -21.96 41.26 -24 45 C-24.66 44.67 -25.32 44.34 -26 44 C-26 43.01 -26 42.02 -26 41 C-25.34 41 -24.68 41 -24 41 C-24 39.68 -24 38.36 -24 37 C-23.34 37 -22.68 37 -22 37 C-21.87625 36.38125 -21.7525 35.7625 -21.625 35.125 C-21 33 -21 33 -19 31 C-17.05111694 30.79745483 -17.05111694 30.79745483 -14.64208984 30.86474609 C-13.29091568 30.89500381 -13.29091568 30.89500381 -11.91244507 30.9258728 C-10.45144882 30.97416733 -10.45144882 30.97416733 -8.9609375 31.0234375 C-7.96494537 31.04846344 -6.96895325 31.07348938 -5.94277954 31.09927368 C-2.75318105 31.18162239 0.43581189 31.27815454 3.625 31.375 C5.78382921 31.43322434 7.94268347 31.49052793 10.1015625 31.546875 C15.40152043 31.68548928 20.70042276 31.84325791 26 32 C26 21.77 26 11.54 26 1 C17.42 1 8.84 1 0 1 C0 0.67 0 0.34 0 0 Z " fill="#BDE2F8" transform="translate(107,176)"/>
<path d="M0 0 C0.33 0.66 0.66 1.32 1 2 C0.01 4.64 -0.98 7.28 -2 10 C9.22 10.33 20.44 10.66 32 11 C32.66 9.35 33.32 7.7 34 6 C34.65213539 4.65949948 35.31379969 3.32338632 36 2 C36.66 2 37.32 2 38 2 C37.42732628 6.10416164 36.5731146 9.0672135 35 13 C21.47 13 7.94 13 -6 13 C-5.12650515 9.50602058 -4.19458184 7.31362987 -2.4375 4.25 C-1.98246094 3.45078125 -1.52742188 2.6515625 -1.05859375 1.828125 C-0.53458984 0.92320312 -0.53458984 0.92320312 0 0 Z " fill="#C7EEFB" transform="translate(37,231)"/>
<path d="M0 0 C0.66 0 1.32 0 2 0 C0.27054251 4.69557007 -2.0332919 9.02751132 -4.375 13.4375 C-4.8076416 14.25645752 -5.2402832 15.07541504 -5.68603516 15.91918945 C-9.68498188 23.46243146 -13.77204388 30.95741049 -17.88818359 38.43725586 C-20.70801025 43.57333474 -23.41637567 48.74091635 -26 54 C-26.33 54 -26.66 54 -27 54 C-27 52.02 -27 50.04 -27 48 C-25.515 47.505 -25.515 47.505 -24 47 C-23.60955794 45.68225804 -23.29044914 44.34332728 -23 43 C-22 41 -21 39 -20 37 C-17.06894018 30.71658136 -17.06894018 30.71658136 -16 24 C-15.34 24 -14.68 24 -14 24 C-14 23.34 -14 22.68 -14 22 C-13.34 21.67 -12.68 21.34 -12 21 C-11.27840576 19.35636866 -10.60648579 17.68949614 -10 16 C-9.34 16 -8.68 16 -8 16 C-7.67 14.35 -7.34 12.7 -7 11 C-6.01 10.67 -5.02 10.34 -4 10 C-4 8.35 -4 6.7 -4 5 C-3.01 4.67 -2.02 4.34 -1 4 C-0.26676204 1.98491642 -0.26676204 1.98491642 0 0 Z " fill="#1663A1" transform="translate(91,127)"/>
<path d="M0 0 C0.33 0 0.66 0 1 0 C1 13.53 1 27.06 1 41 C1.66 41 2.32 41 3 41 C3 33.41 3 25.82 3 18 C3.66 18 4.32 18 5 18 C5.36634889 23.3316847 5.70049846 28.66414367 6 34 C6.05671875 34.97710937 6.1134375 35.95421875 6.171875 36.9609375 C6.35675222 42.52574185 6.35675222 42.52574185 4.68359375 44.75 C3 46 3 46 -0.1875 45.6875 C-1.115625 45.460625 -2.04375 45.23375 -3 45 C-2.67854004 44.36553955 -2.35708008 43.7310791 -2.02587891 43.07739258 C-0.64574095 38.93730717 -0.6449463 35.09953428 -0.5859375 30.76171875 C-0.56657135 29.88095169 -0.5472052 29.00018463 -0.5272522 28.09272766 C-0.46767149 25.29108234 -0.42115735 22.48939544 -0.375 19.6875 C-0.33680041 17.78318562 -0.29774753 15.87888815 -0.2578125 13.97460938 C-0.16198767 9.31654428 -0.0778774 4.65839832 0 0 Z " fill="#1567AC" transform="translate(134,85)"/>
<path d="M0 0 C0 0.99 0 1.98 0 3 C-6.17408701 9.17408701 -21.57424026 7.41720364 -29.8125 7.625 C-31.72772461 7.68300781 -31.72772461 7.68300781 -33.68164062 7.7421875 C-36.78762777 7.83525079 -39.89362686 7.9210815 -43 8 C-43 7.34 -43 6.68 -43 6 C-43.66 5.67 -44.32 5.34 -45 5 C-44.09870361 4.9906543 -43.19740723 4.98130859 -42.26879883 4.97167969 C-38.85938277 4.92713214 -35.45112322 4.86528946 -32.04223633 4.79248047 C-30.57913271 4.76460573 -29.11588788 4.74322837 -27.65258789 4.72900391 C-17.71121159 4.62669129 -9.39480208 3.53921448 0 0 Z " fill="#D0EFFB" transform="translate(224,207)"/>
<path d="M0 0 C0.66 0.66 1.32 1.32 2 2 C1.64808594 2.64324219 1.29617187 3.28648437 0.93359375 3.94921875 C0.43988281 4.85285156 -0.05382813 5.75648438 -0.5625 6.6875 C-1.10648438 7.67878906 -1.65046875 8.67007813 -2.2109375 9.69140625 C-3.44936479 11.98168555 -4.66287862 14.27434755 -5.8515625 16.58984375 C-6.45742188 17.75644531 -7.06328125 18.92304688 -7.6875 20.125 C-8.24824219 21.22070312 -8.80898438 22.31640625 -9.38671875 23.4453125 C-11 26 -11 26 -14 27 C-13.5516277 24.08558002 -12.77429486 22.68965543 -11 20.25 C-9.11636414 17.18909173 -8.72525409 16.12957996 -8.4375 12.75 C-8.293125 11.5125 -8.14875 10.275 -8 9 C-7.01 8.34 -6.02 7.68 -5 7 C-4.855625 6.175 -4.71125 5.35 -4.5625 4.5 C-4 2 -4 2 -1.9375 0.6875 C-1.298125 0.460625 -0.65875 0.23375 0 0 Z " fill="#1864A1" transform="translate(46,210)"/>
<path d="M0 0 C6.94626986 10.4194048 6.48936891 28.07506964 4.484375 40.08984375 C4.32453125 40.72019531 4.1646875 41.35054687 4 42 C3.67 42 3.34 42 3 42 C2.91697632 40.77482666 2.91697632 40.77482666 2.83227539 39.52490234 C2.57869809 35.80805547 2.32064338 32.09153242 2.0625 28.375 C1.97548828 27.08980469 1.88847656 25.80460937 1.79882812 24.48046875 C1.71181641 23.23652344 1.62480469 21.99257812 1.53515625 20.7109375 C1.41732788 18.99849854 1.41732788 18.99849854 1.29711914 17.25146484 C1.01170552 14.12809709 0.53544118 11.08874332 0 8 C-0.11196073 5.32189925 -0.04625299 2.68267314 0 0 Z " fill="#CAECF8" transform="translate(282,135)"/>
<path d="M0 0 C0.33 0 0.66 0 1 0 C2.32375485 9.23750666 1.94085438 17.62024353 0.375 26.8125 C0.22256836 27.78525879 0.07013672 28.75801758 -0.08691406 29.76025391 C-0.55982661 32.2957651 -1.03228089 34.60892246 -2 37 C-4.6484375 38.63671875 -4.6484375 38.63671875 -7 39 C-6.81824219 38.46375 -6.63648438 37.9275 -6.44921875 37.375 C-2.54340138 25.19686173 -0.63317602 12.75085497 0 0 Z " fill="#2673AA" transform="translate(287,159)"/>
<path d="M0 0 C0.33 0 0.66 0 1 0 C1.60414674 15.12604427 -0.36213095 27.09122254 -10.56640625 38.796875 C-11.66533796 39.91146101 -12.82425227 40.96676714 -14 42 C-14.33 40.68 -14.66 39.36 -15 38 C-13.68 37.34 -12.36 36.68 -11 36 C-11 35.34 -11 34.68 -11 34 C-10.34 34 -9.68 34 -9 34 C-8.67 32.68 -8.34 31.36 -8 30 C-7.34 30 -6.68 30 -6 30 C-5.67 26.04 -5.34 22.08 -5 18 C-3.68 18 -2.36 18 -1 18 C-0.505 9.09 -0.505 9.09 0 0 Z " fill="#216497" transform="translate(250,157)"/>
<path d="M0 0 C0.33 0 0.66 0 1 0 C1.2975048 7.73512476 1.2975048 7.73512476 -1 11 C-1.99 11.66 -2.98 12.32 -4 13 C-4.7959379 15.58359723 -4.7959379 15.58359723 -5.3125 18.5 C-6.0390625 21.48828125 -6.0390625 21.48828125 -7 24 C-10.1875 25.6875 -10.1875 25.6875 -13 26 C-9.51666603 16.95323689 -4.79832534 8.40768512 0 0 Z " fill="#D6EDF7" transform="translate(110,95)"/>
<path d="M0 0 C1.33137876 3.02586081 0.93611409 4.18157047 -0.1875 7.375 C-1.76482192 10.93451792 -3.76300097 13.64450145 -6 17 C1.59 17 9.18 17 17 17 C17 17.33 17 17.66 17 18 C8.42 18 -0.16 18 -9 18 C-7.700625 15.215625 -6.40125 12.43125 -5.0625 9.5625 C-4.44967163 8.24487671 -4.44967163 8.24487671 -3.82446289 6.90063477 C-3.5021167 6.21283936 -3.17977051 5.52504395 -2.84765625 4.81640625 C-2.51773682 4.10943604 -2.18781738 3.40246582 -1.84790039 2.67407227 C-1 1 -1 1 0 0 Z " fill="#296B9C" transform="translate(116,158)"/>
<path d="M0 0 C1.4370809 -0.05422947 2.87475462 -0.09289723 4.3125 -0.125 C5.11300781 -0.14820312 5.91351563 -0.17140625 6.73828125 -0.1953125 C9 0 9 0 12 2 C12 2.66 12 3.32 12 4 C12.99 4.33 13.98 4.66 15 5 C15.99 6.485 15.99 6.485 17 8 C17.99 8.33 18.98 8.66 20 9 C22 12 22 12 21.625 14.1875 C21.315625 15.0846875 21.315625 15.0846875 21 16 C16.125 11.375 16.125 11.375 15 8 C12.71041428 6.90845877 12.71041428 6.90845877 10 6 C8.22051575 5.14273021 6.44946276 4.2677278 4.6875 3.375 C3.80449219 2.92898437 2.92148438 2.48296875 2.01171875 2.0234375 C1.34785156 1.68570313 0.68398437 1.34796875 0 1 C0 0.67 0 0.34 0 0 Z " fill="#CEECF6" transform="translate(221,120)"/>
<path d="M0 0 C0.66 0 1.32 0 2 0 C2 0.66 2 1.32 2 2 C3.22976563 1.89300781 4.45953125 1.78601563 5.7265625 1.67578125 C7.35930853 1.55379448 8.99212518 1.43275047 10.625 1.3125 C11.43324219 1.23966797 12.24148438 1.16683594 13.07421875 1.09179688 C18.25315055 0.73390321 21.45864183 1.14144284 26 4 C26 3.34 26 2.68 26 2 C27.65 2 29.3 2 31 2 C29.02 4.31 27.04 6.62 25 9 C22 6 22 6 21 4 C18.47266765 3.34444881 18.47266765 3.34444881 16 3 C15.67 3.99 15.34 4.98 15 6 C14.34 6 13.68 6 13 6 C13 5.01 13 4.02 13 3 C9.37 3 5.74 3 2 3 C1.67 3.99 1.34 4.98 1 6 C0.67 4.02 0.34 2.04 0 0 Z " fill="#206AA1" transform="translate(268,83)"/>
<path d="M0 0 C0.33 0 0.66 0 1 0 C1.76776475 4.0752634 2.11902034 7.91005447 2.09765625 12.0546875 C2.09443359 13.16328125 2.09121094 14.271875 2.08789062 15.4140625 C2.07951172 16.55617187 2.07113281 17.69828125 2.0625 18.875 C2.05798828 20.0403125 2.05347656 21.205625 2.04882812 22.40625 C2.03708781 25.27088645 2.0206657 28.13541633 2 31 C2.66 31 3.32 31 4 31 C4 31.99 4 32.98 4 34 C2.68 33.67 1.36 33.34 0 33 C0 22.11 0 11.22 0 0 Z " fill="#1865A5" transform="translate(134,176)"/>
<path d="M0 0 C3.63 0 7.26 0 11 0 C10.67 0.99 10.34 1.98 10 3 C9.01 3 8.02 3 7 3 C7 6.63 7 10.26 7 14 C6.01 14 5.02 14 4 14 C4 10.37 4 6.74 4 3 C2.68 3 1.36 3 0 3 C0 2.01 0 1.02 0 0 Z " fill="#B5E9F7" transform="translate(270,86)"/>
<path d="M0 0 C0.8353125 1.0209375 0.8353125 1.0209375 1.6875 2.0625 C2.450625 2.701875 3.21375 3.34125 4 4 C6.70705512 3.85974801 6.70705512 3.85974801 9 3 C9.12375 3.78375 9.2475 4.5675 9.375 5.375 C9.79117993 8.14057822 9.79117993 8.14057822 12 10 C9.33333333 10 6.66666667 10 4 10 C3.01 10.33 2.02 10.66 1 11 C-0.39439664 11.06665376 -1.79169875 11.08538199 -3.1875 11.0625 C-5.0746875 11.0315625 -5.0746875 11.0315625 -7 11 C-7 10.34 -7 9.68 -7 9 C-4.36 9 -1.72 9 1 9 C0.67 6.03 0.34 3.06 0 0 Z " fill="#276DA5" transform="translate(287,91)"/>
<path d="M0 0 C0.99 0.33 1.98 0.66 3 1 C-1.44466773 7.12530771 -6.10933786 12.24156903 -12 17 C-12.33 16.01 -12.66 15.02 -13 14 C-12.34 13.67 -11.68 13.34 -11 13 C-10.5978125 11.824375 -10.5978125 11.824375 -10.1875 10.625 C-8.70618261 7.35050893 -7.1983925 6.51923644 -4 5 C-3.34 5 -2.68 5 -2 5 C-1.34 3.35 -0.68 1.7 0 0 Z " fill="#CAEDF6" transform="translate(270,209)"/>
<path d="M0 0 C0.66 0.33 1.32 0.66 2 1 C-2.95 10.57 -7.9 20.14 -13 30 C-13.33 30 -13.66 30 -14 30 C-14 28.02 -14 26.04 -14 24 C-13.01 23.67 -12.02 23.34 -11 23 C-10.60955794 21.68225804 -10.29044914 20.34332728 -10 19 C-9.01789629 16.9911515 -8.01559401 14.99212671 -7 13 C-5.96795336 10.67906252 -4.98368257 8.34210136 -4 6 C-3.34 6 -2.68 6 -2 6 C-1.34 4.02 -0.68 2.04 0 0 Z " fill="#205E91" transform="translate(78,151)"/>
<path d="M0 0 C0 0.66 0 1.32 0 2 C1.65 2 3.3 2 5 2 C5.495 2.99 5.495 2.99 6 4 C5.43619629 3.86287598 4.87239258 3.72575195 4.29150391 3.58447266 C-3.01498138 1.95122389 -10.15676004 1.57481913 -17.625 1.375 C-19.41744141 1.31699219 -19.41744141 1.31699219 -21.24609375 1.2578125 C-24.16391736 1.16444214 -27.08174921 1.07866422 -30 1 C-30 0.67 -30 0.34 -30 0 C-28.85402344 -0.06058594 -27.70804688 -0.12117188 -26.52734375 -0.18359375 C-24.99738703 -0.26806989 -23.46743959 -0.35271427 -21.9375 -0.4375 C-20.80924805 -0.49647461 -20.80924805 -0.49647461 -19.65820312 -0.55664062 C-16.10442057 -0.75663705 -12.68058081 -1.04934118 -9.15625 -1.59375 C-5.53168562 -2.06027809 -3.34262001 -1.3859644 0 0 Z " fill="#D7F1FA" transform="translate(215,116)"/>
<path d="M0 0 C0.99 0.33 1.98 0.66 3 1 C3 2.65 3 4.3 3 6 C2.01 6 1.02 6 0 6 C-0.2475 7.0725 -0.495 8.145 -0.75 9.25 C-2.01552142 13.04656426 -3.05696039 14.43670743 -6 17 C-6.33 17.66 -6.66 18.32 -7 19 C-7.66 19 -8.32 19 -9 19 C-7.6077541 14.37324343 -5.70479016 10.35313769 -3.375 6.125 C-2.74335937 4.97257812 -2.11171875 3.82015625 -1.4609375 2.6328125 C-0.97882813 1.76398438 -0.49671875 0.89515625 0 0 Z " fill="#D6EFF6" transform="translate(96,121)"/>
<path d="M0 0 C0.66 0 1.32 0 2 0 C0.55457075 3.79653885 -1.15663792 7.35827837 -3.0390625 10.95703125 C-3.61914062 12.06884766 -4.19921875 13.18066406 -4.796875 14.32617188 C-5.40015625 15.47666016 -6.0034375 16.62714844 -6.625 17.8125 C-7.23601563 18.98232422 -7.84703125 20.15214844 -8.4765625 21.35742188 C-9.98224966 24.2394012 -11.49013275 27.12020905 -13 30 C-14.09408284 26.67248534 -14.06667051 26.15195095 -12.55859375 22.71484375 C-11.86384709 21.44890939 -11.15605707 20.19007274 -10.4375 18.9375 C-10.07269531 18.27935303 -9.70789062 17.62120605 -9.33203125 16.94311523 C-8.58803762 15.60226832 -7.83917741 14.26411004 -7.08544922 12.92871094 C-5.52556112 10.15697995 -4.01456925 7.35918662 -2.5 4.5625 C-1.66741329 3.0412578 -0.83439867 1.5202491 0 0 Z " fill="#206496" transform="translate(62,181)"/>
<path d="M0 0 C0.66 0 1.32 0 2 0 C1.46199791 4.98599117 -0.11744529 8.51835705 -2.5625 12.875 C-3.20316406 14.02742187 -3.84382813 15.17984375 -4.50390625 16.3671875 C-4.99761719 17.23601562 -5.49132812 18.10484375 -6 19 C-6.33 19 -6.66 19 -7 19 C-7 16.36 -7 13.72 -7 11 C-6.01 10.67 -5.02 10.34 -4 10 C-3.27019323 8.19000929 -3.27019323 8.19000929 -2.9375 6.0625 C-2.20179372 2.20179372 -2.20179372 2.20179372 0 0 Z " fill="#D9F4FB" transform="translate(118,148)"/>
<path d="M0 0 C0.99 0 1.98 0 3 0 C3 4.62 3 9.24 3 14 C1.68 13.67 0.36 13.34 -1 13 C-1.6875 10.1875 -1.6875 10.1875 -2 7 C-0.5625 5.125 -0.5625 5.125 1 4 C-0.32 4.33 -1.64 4.66 -3 5 C-1.125 1.125 -1.125 1.125 0 0 Z " fill="#B0DCED" transform="translate(297,86)"/>
<path d="M0 0 C0.33 0.99 0.66 1.98 1 3 C0.36191406 3.69867188 -0.27617187 4.39734375 -0.93359375 5.1171875 C-1.75988281 6.02726563 -2.58617187 6.93734375 -3.4375 7.875 C-4.67306641 9.23238281 -4.67306641 9.23238281 -5.93359375 10.6171875 C-8.00907942 12.81137927 -8.00907942 12.81137927 -9 15 C-9.66 15 -10.32 15 -11 15 C-11.268125 15.61875 -11.53625 16.2375 -11.8125 16.875 C-13 19 -13 19 -16 21 C-18.1875 20.625 -18.1875 20.625 -20 20 C-19.3709375 19.52691406 -18.741875 19.05382812 -18.09375 18.56640625 C-11.08975922 13.15519048 -4.93002927 7.3950439 0 0 Z " fill="#28689D" transform="translate(273,209)"/>
<path d="M0 0 C0.58203125 1.85546875 0.58203125 1.85546875 1 4 C0.04060332 5.69036558 -0.96642853 7.35394174 -2 9 C-2.309375 10.155 -2.61875 11.31 -2.9375 12.5 C-4.06295707 16.207388 -5.31801675 18.23674453 -8 21 C-8.99 21.33 -9.98 21.66 -11 22 C-9.23465356 17.15984684 -6.80463275 12.7164873 -4.375 8.1875 C-3.95476562 7.39923828 -3.53453125 6.61097656 -3.1015625 5.79882812 C-2.0699991 3.86464674 -1.03608828 1.93176017 0 0 Z " fill="#C7E4F3" transform="translate(82,147)"/>
<path d="M0 0 C0.33 0 0.66 0 1 0 C1.23860812 21.84589892 1.23860812 21.84589892 -1.4375 26.5 C-3 28 -3 28 -5 28 C-4.45839137 25.7919033 -3.88844616 23.59743616 -3.28125 21.40625 C-1.36092935 14.26265718 -0.37963308 7.38320889 0 0 Z " fill="#C6E5F3" transform="translate(251,159)"/>
<path d="M0 0 C1.125 3.75 1.125 3.75 0 6 C-0.66 6 -1.32 6 -2 6 C-2 6.66 -2 7.32 -2 8 C-3.65 8.66 -5.3 9.32 -7 10 C-7 10.66 -7 11.32 -7 12 C-9.31 12.33 -11.62 12.66 -14 13 C-11.25056672 10.10450308 -8.18312885 7.90279037 -4.9375 5.59765625 C-2.90003105 3.91756593 -1.49676741 2.16563535 0 0 Z " fill="#CDECF6" transform="translate(240,194)"/>
<path d="M0 0 C18.94394213 0.94394213 18.94394213 0.94394213 24 6 C18.58461538 7.23076923 18.58461538 7.23076923 15.625 6.0625 C15.08875 5.711875 14.5525 5.36125 14 5 C14 4.34 14 3.68 14 3 C12.98679688 2.92652344 12.98679688 2.92652344 11.953125 2.8515625 C11.06109375 2.77679688 10.1690625 2.70203125 9.25 2.625 C8.36828125 2.55539063 7.4865625 2.48578125 6.578125 2.4140625 C4.00933618 2.00149945 2.24158985 1.28839043 0 0 Z " fill="#CAEAF7" transform="translate(215,85)"/>
<path d="M0 0 C1.45606519 4.52092968 0.27032841 7.51648796 -1 12 C-1.99 12 -2.98 12 -4 12 C-4.66 13.98 -5.32 15.96 -6 18 C-6.66 18 -7.32 18 -8 18 C-6.65150163 13.64029169 -4.95092154 9.68658562 -2.875 5.625 C-2.33617188 4.56539062 -1.79734375 3.50578125 -1.2421875 2.4140625 C-0.83226563 1.61742187 -0.42234375 0.82078125 0 0 Z " fill="#2672AA" transform="translate(87,211)"/>
<path d="M0 0 C0.66 0 1.32 0 2 0 C2.33 1.98 2.66 3.96 3 6 C4.65 6 6.3 6 8 6 C8 8.97 8 11.94 8 15 C7.67 15 7.34 15 7 15 C7 12.69 7 10.38 7 8 C5.35 8 3.7 8 2 8 C1.67 9.32 1.34 10.64 1 12 C0.34 9.69 -0.32 7.38 -1 5 C-0.34 5 0.32 5 1 5 C0.67 3.35 0.34 1.7 0 0 Z " fill="#0F60A4" transform="translate(266,83)"/>
<path d="M0 0 C0.33 0 0.66 0 1 0 C1 1.98 1 3.96 1 6 C-0.32 6.33 -1.64 6.66 -3 7 C-2.67 6.34 -2.34 5.68 -2 5 C-1.34 5 -0.68 5 0 5 C0 3.35 0 1.7 0 0 Z M-4 7 C-3.34 8.32 -2.68 9.64 -2 11 C-2.66 11 -3.32 11 -4 11 C-4.12375 11.94875 -4.2475 12.8975 -4.375 13.875 C-5 17 -5 17 -7 19 C-8.25 12.375 -8.25 12.375 -6 9 C-5.34 9 -4.68 9 -4 9 C-4 8.34 -4 7.68 -4 7 Z " fill="#0B65AE" transform="translate(106,94)"/>
<path d="M0 0 C1.32 0 2.64 0 4 0 C5.86783046 5.48675196 6.2358396 10.22192976 6 16 C5.34 16 4.68 16 4 16 C3.79503906 15.09636719 3.59007812 14.19273437 3.37890625 13.26171875 C3.10949219 12.08222656 2.84007812 10.90273437 2.5625 9.6875 C2.16224609 7.92986328 2.16224609 7.92986328 1.75390625 6.13671875 C1.04686031 2.99763029 1.04686031 2.99763029 0 0 Z " fill="#DFF8FC" transform="translate(247,143)"/>
<path d="M0 0 C0.29341888 5.67276511 0.00559652 8.99067246 -3 14 C-3.33 14 -3.66 14 -4 14 C-4 9.71 -4 5.42 -4 1 C-2 0 -2 0 0 0 Z " fill="#E8F7FA" transform="translate(133,119)"/>
<path d="M0 0 C-4.40528021 3.55811094 -8.24512263 6 -14 6 C-12.84472689 2.53418066 -12.36913774 2.32129495 -9.25 0.75 C-5.80837551 -0.88415264 -3.69524975 -1.38571866 0 0 Z " fill="#DAF3F9" transform="translate(247,233)"/>
<path d="M0 0 C2.078125 3.671875 2.078125 3.671875 1.375 6.625 C-0.18904075 9.32652494 -1.23514124 9.75135411 -4 11 C-4.33 11.99 -4.66 12.98 -5 14 C-6 11 -6 11 -4.78515625 8.30078125 C-4.21667969 7.31464844 -3.64820313 6.32851562 -3.0625 5.3125 C-2.49660156 4.31863281 -1.93070313 3.32476562 -1.34765625 2.30078125 C-0.90292969 1.54152344 -0.45820312 0.78226563 0 0 Z " fill="#D0ECF5" transform="translate(44,218)"/>
<path d="M0 0 C0.99 0.66 1.98 1.32 3 2 C5.64632287 1.6878236 5.64632287 1.6878236 8 1 C8 2.65 8 4.3 8 6 C7.34 5.34 6.68 4.68 6 4 C5.01 5.485 5.01 5.485 4 7 C2.125 6.8125 2.125 6.8125 0 6 C-1.25 3.4375 -1.25 3.4375 -2 1 C-1.34 0.67 -0.68 0.34 0 0 Z " fill="#D7F2FA" transform="translate(290,89)"/>
<path d="M0 0 C6.6162295 0.31974343 12.29790201 2.83216778 18 6 C15.42077613 7.28961193 14.59708789 6.79211692 11.8671875 6.00390625 C11.06152344 5.77509766 10.25585938 5.54628906 9.42578125 5.31054688 C8.58402344 5.06369141 7.74226562 4.81683594 6.875 4.5625 C6.02550781 4.31951172 5.17601562 4.07652344 4.30078125 3.82617188 C2.19858388 3.2238569 0.09854569 2.61489475 -2 2 C-1.34 1.34 -0.68 0.68 0 0 Z " fill="#20669C" transform="translate(211,118)"/>
<path d="M0 0 C0.66 0.33 1.32 0.66 2 1 C2 1.99 2 2.98 2 4 C1.34 4 0.68 4 0 4 C0 5.32 0 6.64 0 8 C-0.66 8 -1.32 8 -2 8 C-2.33 10.31 -2.66 12.62 -3 15 C-3.66 14.67 -4.32 14.34 -5 14 C-5.28883414 9.93465943 -4.57875609 7.66941645 -2.5 4.1875 C-2.0359375 3.39730469 -1.571875 2.60710937 -1.09375 1.79296875 C-0.55234375 0.90544922 -0.55234375 0.90544922 0 0 Z " fill="#1868A3" transform="translate(77,231)"/>
<path d="M0 0 C1 2 1 2 0.44140625 3.9453125 C0.15136719 4.66460937 -0.13867188 5.38390625 -0.4375 6.125 C-0.72496094 6.84945312 -1.01242188 7.57390625 -1.30859375 8.3203125 C-1.53675781 8.87460938 -1.76492187 9.42890625 -2 10 C-0.02 10 1.96 10 4 10 C4 10.66 4 11.32 4 12 C1.03 12 -1.94 12 -5 12 C-4.42365861 7.24518354 -2.44931479 4.02951788 0 0 Z " fill="#D3EFF7" transform="translate(37,231)"/>
<path d="M0 0 C0 0.99 0 1.98 0 3 C-2.43773135 5.43773135 -3.61088906 5.61487376 -7 6 C-10.3125 5.5625 -10.3125 5.5625 -13 5 C-10.14415227 3.09610151 -8.0688238 2.30537823 -4.8125 1.375 C-3.91144531 1.11460937 -3.01039063 0.85421875 -2.08203125 0.5859375 C-1.39496094 0.39257812 -0.70789063 0.19921875 0 0 Z " fill="#C9E7F5" transform="translate(224,207)"/>
<path d="M0 0 C0.66 0 1.32 0 2 0 C1.67279478 6.21689926 -1.52799495 11.00899274 -5 16 C-5.33 16 -5.66 16 -6 16 C-6 14.35 -6 12.7 -6 11 C-5.34 11 -4.68 11 -4 11 C-3.71125 10.113125 -3.4225 9.22625 -3.125 8.3125 C-2.16851252 5.49617576 -1.13201054 2.74916844 0 0 Z " fill="#CBEEF9" transform="translate(279,193)"/>
<path d="M0 0 C0.6875 1.6875 0.6875 1.6875 1 4 C-0.25 6.375 -0.25 6.375 -2 9 C-3.0150089 10.99242489 -4.01873444 12.99074195 -5 15 C-5.33 15 -5.66 15 -6 15 C-6.36637589 8.64948454 -6.36637589 8.64948454 -4.625 5.5625 C-3 4 -3 4 -1 4 C-0.67 2.68 -0.34 1.36 0 0 Z " fill="#0C66AD" transform="translate(72,159)"/>
<path d="M0 0 C0.66 0 1.32 0 2 0 C0.63408831 3.54243452 -0.90931484 6.92627929 -2.625 10.3125 C-3.07101563 11.19550781 -3.51703125 12.07851562 -3.9765625 12.98828125 C-4.31429687 13.65214844 -4.65203125 14.31601563 -5 15 C-5.66 13.68 -6.32 12.36 -7 11 C-6.01 10.67 -5.02 10.34 -4 10 C-4 8.35 -4 6.7 -4 5 C-3.01 4.67 -2.02 4.34 -1 4 C-0.26676204 1.98491642 -0.26676204 1.98491642 0 0 Z " fill="#266AA4" transform="translate(91,127)"/>
<path d="M0 0 C4.61513112 1.31860889 8.09897612 3.21355437 12 6 C10.1875 6.625 10.1875 6.625 8 7 C7.01 6.34 6.02 5.68 5 5 C3.01200182 4.29835358 1.01301483 3.62627128 -1 3 C-0.67 2.01 -0.34 1.02 0 0 Z " fill="#DAF3F9" transform="translate(245,94)"/>
<path d="M0 0 C-0.33 0.99 -0.66 1.98 -1 3 C-8.92 3.495 -8.92 3.495 -17 4 C-14.35103165 1.35103165 -12.13454484 1.13670541 -8.5 0.3125 C-6.75203125 -0.09548828 -6.75203125 -0.09548828 -4.96875 -0.51171875 C-2 -1 -2 -1 0 0 Z " fill="#12629E" transform="translate(236,241)"/>
<path d="M0 0 C0.66 0 1.32 0 2 0 C4.08989546 5.31329355 5.6112798 9.28728072 4 15 C3.67 15 3.34 15 3 15 C2.49564306 13.0636296 1.99666126 11.12585854 1.5 9.1875 C1.2215625 8.10855469 0.943125 7.02960938 0.65625 5.91796875 C0 3 0 3 0 0 Z " fill="#3875A5" transform="translate(246,144)"/>
<path d="M0 0 C0.66 0.33 1.32 0.66 2 1 C1.46884894 5.51478398 -0.36620292 8.34666857 -3 12 C-4 10 -4 10 -3.4765625 7.87109375 C-3.05503906 6.66646484 -3.05503906 6.66646484 -2.625 5.4375 C-2.34914062 4.63183594 -2.07328125 3.82617188 -1.7890625 2.99609375 C-1 1 -1 1 0 0 Z " fill="#1667A4" transform="translate(131,130)"/>
<path d="M0 0 C0 0.66 0 1.32 0 2 C-4.79554278 4.63754853 -10.63672638 7.67968596 -16.2421875 6.546875 C-17.11230469 6.27617187 -17.11230469 6.27617187 -18 6 C-16.77023438 5.60167969 -16.77023438 5.60167969 -15.515625 5.1953125 C-14.43796875 4.84210938 -13.3603125 4.48890625 -12.25 4.125 C-11.18265625 3.77695313 -10.1153125 3.42890625 -9.015625 3.0703125 C-6.07915937 2.09730006 -6.07915937 2.09730006 -3.734375 0.8671875 C-2 0 -2 0 0 0 Z " fill="#3E7FAE" transform="translate(245,235)"/>
<path d="M0 0 C0.33 0 0.66 0 1 0 C1 2.97 1 5.94 1 9 C-0.98 9.66 -2.96 10.32 -5 11 C-3.55049545 7.2089881 -1.84827434 3.6125362 0 0 Z " fill="#D2EEF6" transform="translate(52,203)"/>
<path d="M0 0 C0.66 0.66 1.32 1.32 2 2 C1.84831437 6.24719772 -1.32816401 8.98562093 -4 12 C-4.33 11.34 -4.66 10.68 -5 10 C-4.00390625 7.6171875 -4.00390625 7.6171875 -2.5625 4.875 C-1.85287109 3.50988281 -1.85287109 3.50988281 -1.12890625 2.1171875 C-0.75636719 1.41851562 -0.38382812 0.71984375 0 0 Z " fill="#CFE9F5" transform="translate(70,169)"/>
<path d="M0 0 C0.33 0 0.66 0 1 0 C1 4.95 1 9.9 1 15 C0.34 15 -0.32 15 -1 15 C-1.91457003 9.43842552 -2.32086397 5.324335 0 0 Z " fill="#075BA6" transform="translate(140,192)"/>
<path d="M0 0 C0.33 1.32 0.66 2.64 1 4 C0.34 4 -0.32 4 -1 4 C-1.33 6.31 -1.66 8.62 -2 11 C-2.99 11 -3.98 11 -5 11 C-5 11.99 -5 12.98 -5 14 C-5.66 14 -6.32 14 -7 14 C-5.23570801 9.02790438 -2.6060834 4.56561939 0 0 Z " fill="#BEE4F3" transform="translate(64,181)"/>
<path d="M0 0 C3.1875 -0.3125 3.1875 -0.3125 7 0 C9.9375 2.5 9.9375 2.5 12 5 C11.67 5.66 11.34 6.32 11 7 C10.566875 6.505 10.13375 6.01 9.6875 5.5 C8.00259517 3.66781808 8.00259517 3.66781808 5 4 C2.3125 2 2.3125 2 0 0 Z " fill="#1D6AAC" transform="translate(252,97)"/>
<path d="M0 0 C0.99 0 1.98 0 3 0 C3 1.98 3 3.96 3 6 C0.03 6 -2.94 6 -6 6 C-6 5.34 -6 4.68 -6 4 C-4.35 4 -2.7 4 -1 4 C-0.67 2.68 -0.34 1.36 0 0 Z " fill="#0C64A3" transform="translate(276,79)"/>
<path d="M0 0 C0.66 0.33 1.32 0.66 2 1 C-0.31 5.29 -2.62 9.58 -5 14 C-5.33 14 -5.66 14 -6 14 C-6 12.35 -6 10.7 -6 9 C-5.34 9 -4.68 9 -4 9 C-3.71125 7.88625 -3.4225 6.7725 -3.125 5.625 C-2 2 -2 2 0 0 Z " fill="#CBF0F9" transform="translate(127,134)"/>
<path d="M0 0 C5.66153846 2.33846154 5.66153846 2.33846154 7.375 5.6875 C7.684375 6.8321875 7.684375 6.8321875 8 8 C7.01 8.33 6.02 8.66 5 9 C4.34 7.35 3.68 5.7 3 4 C2.34 4 1.68 4 1 4 C0.67 2.68 0.34 1.36 0 0 Z " fill="#1E679F" transform="translate(230,125)"/>
<path d="M0 0 C0.66 0 1.32 0 2 0 C1.67 1.65 1.34 3.3 1 5 C0.34 5 -0.32 5 -1 5 C-1.33 6.65 -1.66 8.3 -2 10 C-2.99 10 -3.98 10 -5 10 C-3.66749209 6.4124787 -2.169283 3.1635377 0 0 Z " fill="#216DA5" transform="translate(279,199)"/>
<path d="M0 0 C0.33 0 0.66 0 1 0 C0.88487847 1.72985242 0.75744323 3.45888751 0.625 5.1875 C0.52058594 6.63189453 0.52058594 6.63189453 0.4140625 8.10546875 C-0.00215853 11.01508938 -0.79874096 13.32890774 -2 16 C-2.33 16 -2.66 16 -3 16 C-3.37851209 10.06997733 -2.10575375 5.52760359 0 0 Z " fill="#CFF1FB" transform="translate(284,177)"/>
<path d="M0 0 C0.66 0.33 1.32 0.66 2 1 C1.67 2.98 1.34 4.96 1 7 C-0.32 7.33 -1.64 7.66 -3 8 C-2.25 2.25 -2.25 2.25 0 0 Z " fill="#086EBC" transform="translate(282,90)"/>
<path d="M0 0 C0.99 0 1.98 0 3 0 C3 0.66 3 1.32 3 2 C2.34 2 1.68 2 1 2 C0.9175 2.78375 0.835 3.5675 0.75 4.375 C0 7 0 7 -2.0625 8.3125 C-3.0215625 8.6528125 -3.0215625 8.6528125 -4 9 C-4 8.01 -4 7.02 -4 6 C-3.34 5.67 -2.68 5.34 -2 5 C-1.27840576 3.35636866 -0.60648579 1.68949614 0 0 Z " fill="#DBF4F7" transform="translate(261,217)"/>
<path d="M0 0 C0.33 0.99 0.66 1.98 1 3 C-4.14285714 7.42857143 -4.14285714 7.42857143 -8 8 C-6.74874616 4.24623848 -5.4347596 3.75926711 -2 2 C-1.34 2 -0.68 2 0 2 C0 1.34 0 0.68 0 0 Z " fill="#18609B" transform="translate(233,198)"/>
<path d="M0 0 C1.32 1.32 2.64 2.64 4 4 C3.34 5.98 2.68 7.96 2 10 C0 8 0 8 -0.1953125 6.0546875 C-0.13020833 4.03645833 -0.06510417 2.01822917 0 0 Z " fill="#E3F3F1" transform="translate(265,108)"/>
<path d="M0 0 C3.53600465 1.91135386 5.78972846 3.62642766 8 7 C5.25851328 6.62952882 3.41406801 6.31412056 1.1875 4.625 C0 3 0 3 0 0 Z " fill="#CAEBF4" transform="translate(257,101)"/>
<path d="M0 0 C0.99 0 1.98 0 3 0 C2.42365861 4.75481646 0.44931479 7.97048212 -2 12 C-3 10 -3 10 -2.0625 6.875 C-1.711875 5.92625 -1.36125 4.9775 -1 4 C-0.34 4 0.32 4 1 4 C0.67 2.68 0.34 1.36 0 0 Z " fill="#1A6297" transform="translate(103,101)"/>
<path d="M0 0 C0.66 0.99 1.32 1.98 2 3 C1.01 4.98 0.02 6.96 -1 9 C-1.99 9 -2.98 9 -4 9 C-2.94124926 5.59687262 -1.99097846 2.98646769 0 0 Z " fill="#BDE2F0" transform="translate(115,86)"/>
<path d="M0 0 C2.475 0.495 2.475 0.495 5 1 C5 1.66 5 2.32 5 3 C3.68 2.67 2.36 2.34 1 2 C1 5.96 1 9.92 1 14 C0.67 14 0.34 14 0 14 C0 9.38 0 4.76 0 0 Z " fill="#B3ECF9" transform="translate(285,86)"/>
<path d="M0 0 C-1.36983503 3.16115776 -1.9890638 3.9927092 -5 6 C-7.1875 5.625 -7.1875 5.625 -9 5 C-7.87926138 4.16094435 -6.75325453 3.32892169 -5.625 2.5 C-4.99851562 2.0359375 -4.37203125 1.571875 -3.7265625 1.09375 C-2 0 -2 0 0 0 Z " fill="#2F6DA2" transform="translate(262,224)"/>
<path d="M0 0 C0.66 0.33 1.32 0.66 2 1 C2 2.32 2 3.64 2 5 C1.34 5 0.68 5 0 5 C-0.66 6.65 -1.32 8.3 -2 10 C-2.6875 8.375 -2.6875 8.375 -3 6 C-1.5625 2.75 -1.5625 2.75 0 0 Z " fill="#0F64AB" transform="translate(62,176)"/>
<path d="M0 0 C0.66 0.33 1.32 0.66 2 1 C0.35 4.3 -1.3 7.6 -3 11 C-3.33 11 -3.66 11 -4 11 C-4 9.02 -4 7.04 -4 5 C-3.01 4.67 -2.02 4.34 -1 4 C-0.26676204 1.98491642 -0.26676204 1.98491642 0 0 Z " fill="#27669A" transform="translate(68,170)"/>
<path d="M0 0 C0.66 0.99 1.32 1.98 2 3 C0.515 5.475 0.515 5.475 -1 8 C-0.34 8.33 0.32 8.66 1 9 C-0.65 9 -2.3 9 -4 9 C-2.68 6.03 -1.36 3.06 0 0 Z " fill="#326C97" transform="translate(111,167)"/>
<path d="M0 0 C1.65 0.33 3.3 0.66 5 1 C4.01 1.495 4.01 1.495 3 2 C2.34786708 4.02463255 2.34786708 4.02463255 2 6 C1.01 6 0.02 6 -1 6 C-0.67 4.02 -0.34 2.04 0 0 Z " fill="#0963B0" transform="translate(296,79)"/>
<path d="M0 0 C0.33 0 0.66 0 1 0 C1.125 7.75 1.125 7.75 0 10 C-0.99 9.67 -1.98 9.34 -3 9 C-2.01 6.03 -1.02 3.06 0 0 Z " fill="#0B5EA8" transform="translate(244,177)"/>
<path d="M0 0 C2.31 0.33 4.62 0.66 7 1 C7 1.66 7 2.32 7 3 C5.02 3.66 3.04 4.32 1 5 C0.67 3.35 0.34 1.7 0 0 Z " fill="#0665A3" transform="translate(271,99)"/>
<path d="M0 0 C2 1.375 2 1.375 4 3 C4 3.66 4 4.32 4 5 C2.68 5.33 1.36 5.66 0 6 C-0.66 4.35 -1.32 2.7 -2 1 C-1.34 0.67 -0.68 0.34 0 0 Z " fill="#026BC7" transform="translate(265,98)"/>
<path d="M0 0 C0.99 0 1.98 0 3 0 C2.835 0.928125 2.67 1.85625 2.5 2.8125 C1.92251612 5.95621353 1.92251612 5.95621353 2 9 C1.34 8.67 0.68 8.34 0 8 C0 5.36 0 2.72 0 0 Z " fill="#1D6CA9" transform="translate(245,175)"/>
<path d="M0 0 C0.66 0 1.32 0 2 0 C2 1.32 2 2.64 2 4 C1.01 4.33 0.02 4.66 -1 5 C-1.66 5.99 -2.32 6.98 -3 8 C-2.25 2.25 -2.25 2.25 0 0 Z " fill="#E6F9FC" transform="translate(118,148)"/>
<path d="M0 0 C4.455 0.99 4.455 0.99 9 2 C5 4 5 4 1.75 3.125 C0.8425 2.75375 -0.065 2.3825 -1 2 C-0.67 1.34 -0.34 0.68 0 0 Z " fill="#0966B0" transform="translate(218,122)"/>
<path d="M0 0 C2.6875 -0.3125 2.6875 -0.3125 5 0 C3.02 2.31 1.04 4.62 -1 7 C-1.66 6.34 -2.32 5.68 -3 5 C-1.8125 2.5 -1.8125 2.5 0 0 Z " fill="#2F739D" transform="translate(294,85)"/>
<path d="M0 0 C0.66 0.33 1.32 0.66 2 1 C2 1.99 2 2.98 2 4 C1.34 4 0.68 4 0 4 C0 5.32 0 6.64 0 8 C-0.66 7.67 -1.32 7.34 -2 7 C-1.125 1.125 -1.125 1.125 0 0 Z " fill="#2571AB" transform="translate(77,231)"/>
<path d="M0 0 C-0.99 1.485 -0.99 1.485 -2 3 C-3.32 2.67 -4.64 2.34 -6 2 C-6 1.34 -6 0.68 -6 0 C-3.50907189 -1.24546405 -2.58919267 -0.7767578 0 0 Z " fill="#0E66B2" transform="translate(240,192)"/>
<path d="M0 0 C0.33 0 0.66 0 1 0 C1 1.65 1 3.3 1 5 C0.01 5.33 -0.98 5.66 -2 6 C-2 6.99 -2 7.98 -2 9 C-2.66 9 -3.32 9 -4 9 C-2.80100302 5.9168649 -1.52299523 2.93720508 0 0 Z " fill="#BFE5F5" transform="translate(108,99)"/>
</svg>
